<svg xmlns="http://www.w3.org/2000/svg" viewBox="0 0 480 600">
  <defs>
    <radialGradient id="skin" cx="42%" cy="32%" r="62%">
      <stop offset="0%" stop-color="#e8a87c"/>
      <stop offset="100%" stop-color="#9b6b3a"/>
    </radialGradient>
    <radialGradient id="jacket" cx="22%" cy="10%" r="90%">
      <stop offset="0%" stop-color="#ffe847"/>
      <stop offset="40%" stop-color="#f59e0b"/>
      <stop offset="100%" stop-color="#b45309"/>
    </radialGradient>
  </defs>

  <!-- JACKET BODY -->
  <path d="M-40 610 C-30 455 22 348 82 308 L130 292 L158 306 C172 314 188 319 200 319 C212 319 228 314 242 306 L272 292 L340 312 C402 352 456 452 470 610Z" fill="url(#jacket)"/>

  <!-- LEFT SLEEVE raised holding plant -->
  <path d="M-55 610 C-44 482 -32 388 -18 316 C-6 258 18 215 52 200 C84 185 122 200 142 246 C160 290 160 354 157 422 L130 292 C100 326 60 400 40 502Z" fill="#fbbf24"/>
  <path d="M20 222 C46 208 88 220 110 256" stroke="#fde68a" stroke-width="2.5" fill="none" opacity="0.4" stroke-linecap="round"/>

  <!-- RIGHT SLEEVE -->
  <path d="M528 610 C514 478 500 384 486 310 C474 250 450 208 418 195 C384 182 346 200 330 247 C314 292 316 358 320 432 L272 292 C308 328 350 408 368 508Z" fill="#d97706"/>

  <!-- COLLAR -->
  <path d="M158 306 C170 286 186 276 200 275 C214 276 230 286 242 306 L234 336 C224 316 212 308 200 307 C188 308 176 316 166 336Z" fill="#fde68a"/>

  <!-- NECK -->
  <rect x="184" y="266" width="32" height="52" rx="13" fill="#d4956a"/>
  <rect x="184" y="298" width="32" height="20" rx="8" fill="rgba(0,0,0,0.14)"/>

  <!-- HAIR big afro -->
  <ellipse cx="200" cy="198" rx="90" ry="98" fill="#0f0400"/>
  <ellipse cx="120" cy="210" rx="42" ry="72" fill="#0f0400"/>
  <ellipse cx="280" cy="210" rx="42" ry="72" fill="#0f0400"/>
  <ellipse cx="200" cy="126" rx="68" ry="46" fill="#0f0400"/>
  <ellipse cx="170" cy="143" rx="30" ry="18" fill="#1a0800" opacity="0.7"/>

  <!-- FACE -->
  <ellipse cx="200" cy="230" rx="64" ry="74" fill="#d4956a"/>
  <path d="M148 266 Q200 314 252 266 Q242 298 200 306 Q158 298 148 266Z" fill="#c4895e"/>

  <!-- SUNGLASSES -->
  <rect x="132" y="210" width="58" height="36" rx="13" fill="#0d0d0d"/>
  <rect x="134" y="212" width="54" height="32" rx="12" fill="#161616"/>
  <ellipse cx="150" cy="220" rx="14" ry="7" fill="white" opacity="0.07"/>
  <path d="M137 215 L148 209" stroke="white" stroke-width="1.5" opacity="0.12" stroke-linecap="round"/>
  <rect x="210" y="210" width="58" height="36" rx="13" fill="#0d0d0d"/>
  <rect x="212" y="212" width="54" height="32" rx="12" fill="#161616"/>
  <ellipse cx="228" cy="220" rx="14" ry="7" fill="white" opacity="0.07"/>
  <path d="M190 226 L210 226" stroke="#0d0d0d" stroke-width="6" stroke-linecap="round"/>
  <rect x="86" y="220" width="46" height="7" rx="3.5" fill="#0d0d0d"/>
  <rect x="268" y="220" width="46" height="7" rx="3.5" fill="#0d0d0d"/>

  <!-- NOSE -->
  <path d="M194 256 C192 268 196 278 200 278 C204 278 208 268 206 256" fill="#9b6b3a" opacity="0.28"/>

  <!-- LIPS -->
  <path d="M181 290 C188 282 212 282 219 290 C212 300 188 300 181 290Z" fill="#6b1a1a"/>
  <path d="M181 290 C190 294 210 294 219 290" fill="#b03030" opacity="0.5"/>

  <!-- EARS + earring -->
  <ellipse cx="137" cy="240" rx="12" ry="17" fill="#d4956a"/>
  <ellipse cx="263" cy="240" rx="12" ry="17" fill="#d4956a"/>
  <circle cx="137" cy="256" r="6" fill="#f59e0b"/>
  <circle cx="137" cy="256" r="3.5" fill="#fde68a"/>

  <!-- PLANT (left side, raised) -->
  <g transform="translate(-8,-28)">
    <path d="M120 440 C117 362 122 272 114 180 C111 146 106 110 112 80" stroke="#166534" stroke-width="8" fill="none" stroke-linecap="round"/>
    <path d="M115 242 C54 190 20 140 36 90 C64 132 97 190 115 242Z" fill="#15803d"/>
    <path d="M115 242 C74 194 46 150 36 90" stroke="#14532d" stroke-width="2" fill="none" opacity="0.55"/>
    <path d="M115 197 C180 140 214 94 198 54 C167 97 132 150 115 197Z" fill="#16a34a"/>
    <path d="M113 142 C92 97 100 50 114 20 C128 50 130 98 113 142Z" fill="#22c55e"/>
    <path d="M116 322 C74 288 60 254 70 224 C92 257 110 294 116 322Z" fill="#166534"/>
    <path d="M117 287 C157 257 170 227 160 200 C138 230 120 264 117 287Z" fill="#15803d" opacity="0.8"/>
  </g>

  <!-- Left hand -->
  <path d="M100 422 C102 406 114 398 130 401 C144 404 152 418 148 432 C144 446 130 452 116 446 C102 440 98 432 100 422Z" fill="#d4956a"/>
  <path d="M116 401 C124 387 134 385 140 392" stroke="#9b6b3a" stroke-width="3.5" fill="none" stroke-linecap="round"/>
  <path d="M126 398 C136 383 146 381 150 389" stroke="#9b6b3a" stroke-width="3" fill="none" stroke-linecap="round"/>
</svg>